<svg xmlns="http://www.w3.org/2000/svg" width="759" height="924" viewBox="0 0 759 924" font-family="system-ui,-apple-system,sans-serif">
<rect width="100%" height="100%" fill="#0d1015"/>
<defs><marker id="fl" viewBox="0 0 10 10" refX="9" refY="5" markerWidth="7" markerHeight="7" orient="auto-start-reverse"><path d="M0,0 L10,5 L0,10 z" fill="context-stroke"/></marker><marker id="fc" viewBox="0 0 10 10" refX="9" refY="5" markerWidth="7" markerHeight="7" orient="auto-start-reverse"><path d="M0,0 L10,5 L0,10 z" fill="none" stroke="context-stroke" stroke-width="1.6"/></marker></defs>
<title>stilhawt-cli — its own grammar</title>
<text x="30" y="18" font-size="16" font-weight="600" fill="#e6edf3">stilhawt-cli — its own grammar</text>
<rect x="60" y="96" width="152" height="96" rx="12" fill="#8a93a2" fill-opacity="0.05" stroke="#8a93a2" stroke-width="2" stroke-opacity="0.75"/><text x="136" y="113" font-size="12" font-weight="600" fill="#8a93a2" text-anchor="middle">git</text>
<rect x="303" y="344" width="152" height="158" rx="12" fill="#8a93a2" fill-opacity="0.05" stroke="#8a93a2" stroke-width="2" stroke-opacity="0.75"/><text x="379" y="361" font-size="12" font-weight="600" fill="#8a93a2" text-anchor="middle">dsl</text>
<rect x="302" y="592" width="155" height="158" rx="12" fill="#8a93a2" fill-opacity="0.05" stroke="#8a93a2" stroke-width="2" stroke-opacity="0.75"/><text x="379" y="609" font-size="12" font-weight="600" fill="#8a93a2" text-anchor="middle">tools</text>
<rect x="547" y="96" width="152" height="158" rx="12" fill="#8a93a2" fill-opacity="0.05" stroke="#8a93a2" stroke-width="2" stroke-opacity="0.75"/><text x="623" y="113" font-size="12" font-weight="600" fill="#8a93a2" text-anchor="middle">fs</text>
<rect x="60" y="282" width="152" height="96" rx="12" fill="#8a93a2" fill-opacity="0.05" stroke="#8a93a2" stroke-width="2" stroke-opacity="0.75"/><text x="136" y="299" font-size="12" font-weight="600" fill="#8a93a2" text-anchor="middle">data</text>
<rect x="60" y="468" width="152" height="96" rx="12" fill="#8a93a2" fill-opacity="0.05" stroke="#8a93a2" stroke-width="2" stroke-opacity="0.75"/><text x="136" y="485" font-size="12" font-weight="600" fill="#8a93a2" text-anchor="middle">http</text>
<rect x="60" y="654" width="152" height="158" rx="12" fill="#8a93a2" fill-opacity="0.05" stroke="#8a93a2" stroke-width="2" stroke-opacity="0.75"/><text x="136" y="671" font-size="12" font-weight="600" fill="#8a93a2" text-anchor="middle">snip</text>
<rect x="303" y="96" width="152" height="158" rx="12" fill="#8a93a2" fill-opacity="0.05" stroke="#8a93a2" stroke-width="2" stroke-opacity="0.75"/><text x="379" y="113" font-size="12" font-weight="600" fill="#8a93a2" text-anchor="middle">ai</text>
<rect x="76" y="138" width="120" height="38" rx="3" fill="#8a93a2" fill-opacity="0.13" stroke="#8a93a2" stroke-width="1.5"/>
<text x="136" y="161" font-size="12" fill="#e6edf3" text-anchor="middle">git status</text>
<rect x="319" y="386" width="120" height="38" rx="3" fill="#8a93a2" fill-opacity="0.13" stroke="#8a93a2" stroke-width="1.5"/>
<text x="379" y="409" font-size="12" fill="#e6edf3" text-anchor="middle">dsl read</text>
<rect x="319" y="448" width="120" height="38" rx="3" fill="#8a93a2" fill-opacity="0.13" stroke="#8a93a2" stroke-width="1.5"/>
<text x="379" y="471" font-size="12" fill="#e6edf3" text-anchor="middle">dsl tree</text>
<rect x="319" y="634" width="120" height="38" rx="3" fill="#8a93a2" fill-opacity="0.13" stroke="#8a93a2" stroke-width="1.5"/>
<text x="379" y="657" font-size="12" fill="#e6edf3" text-anchor="middle">tools list</text>
<rect x="318" y="696" width="123" height="38" rx="3" fill="#8a93a2" fill-opacity="0.13" stroke="#8a93a2" stroke-width="1.5"/>
<text x="379" y="719" font-size="12" fill="#e6edf3" text-anchor="middle">tools commands</text>
<rect x="563" y="138" width="120" height="38" rx="3" fill="#8a93a2" fill-opacity="0.13" stroke="#8a93a2" stroke-width="1.5"/>
<text x="623" y="161" font-size="12" fill="#e6edf3" text-anchor="middle">fs files</text>
<rect x="563" y="200" width="120" height="38" rx="3" fill="#8a93a2" fill-opacity="0.13" stroke="#8a93a2" stroke-width="1.5"/>
<text x="623" y="223" font-size="12" fill="#e6edf3" text-anchor="middle">fs search</text>
<rect x="76" y="324" width="120" height="38" rx="3" fill="#8a93a2" fill-opacity="0.13" stroke="#8a93a2" stroke-width="1.5"/>
<text x="136" y="347" font-size="12" fill="#e6edf3" text-anchor="middle">data read</text>
<rect x="76" y="510" width="120" height="38" rx="3" fill="#8a93a2" fill-opacity="0.13" stroke="#8a93a2" stroke-width="1.5"/>
<text x="136" y="533" font-size="12" fill="#e6edf3" text-anchor="middle">http get</text>
<rect x="76" y="696" width="120" height="38" rx="3" fill="#8a93a2" fill-opacity="0.13" stroke="#8a93a2" stroke-width="1.5"/>
<text x="136" y="719" font-size="12" fill="#e6edf3" text-anchor="middle">snip list</text>
<rect x="76" y="758" width="120" height="38" rx="3" fill="#8a93a2" fill-opacity="0.13" stroke="#8a93a2" stroke-width="1.5"/>
<text x="136" y="781" font-size="12" fill="#e6edf3" text-anchor="middle">snip uses</text>
<rect x="319" y="138" width="120" height="38" rx="3" fill="#8a93a2" fill-opacity="0.13" stroke="#8a93a2" stroke-width="1.5"/>
<text x="379" y="161" font-size="12" fill="#e6edf3" text-anchor="middle">ai keys</text>
<rect x="319" y="200" width="120" height="38" rx="3" fill="#8a93a2" fill-opacity="0.13" stroke="#8a93a2" stroke-width="1.5"/>
<text x="379" y="223" font-size="12" fill="#e6edf3" text-anchor="middle">ai probe</text>
</svg>